{
  "asset": {
    "generator": "Khronos glTF Blender I/O v1.7.33",
    "version": "2.0"
  },
  "scene": 0,
  "scenes": [
    {
      "name": "Scene",
      "nodes": [
        0,
        1,
        2,
        3,
        4,
        5,
        7
      ]
    }
  ],
  "nodes": [
    {
      "mesh": 0,
      "name": "Fundo",
      "scale": [
        0.055340468883514404,
        0.800640881061554,
        2.6109135150909424
      ],
      "translation": [
        -0.11390793323516846,
        0.47841334342956543,
        0
      ]
    },
    {
      "mesh": 1,
      "name": "Cilindro",
      "rotation": [
        -0.7071067690849304,
        0,
        0,
        0.7071068286895752
      ],
      "scale": [
        0.05807483196258545,
        2.4813265800476074,
        0.05807483196258545
      ],
      "translation": [
        0,
        -0.4255223274230957,
        0.0073365927673876286
      ]
    },
    {
      "mesh": 2,
      "name": "Relicario",
      "rotation": [
        0,
        0,
        -0.7071067094802856,
        0.7071068286895752
      ],
      "scale": [
        0.43403100967407227,
        0.43403100967407227,
        0.43403100967407227
      ],
      "translation": [
        0,
        0.5957995057106018,
        2.037635564804077
      ]
    },
    {
      "mesh": 3,
      "name": "Texto",
      "rotation": [
        -0.5,
        -0.5000000596046448,
        0.4999999701976776,
        -0.5
      ],
      "scale": [
        0.49669158458709717,
        0.49669158458709717,
        0.49669158458709717
      ],
      "translation": [
        0,
        0.7149595022201538,
        1.4299198389053345
      ]
    },
    {
      "mesh": 4,
      "name": "Texto.001",
      "rotation": [
        0.4999999701976776,
        0.5000000596046448,
        -0.4999999701976776,
        0.5
      ],
      "scale": [
        0.14586511254310608,
        0.14586511254310608,
        0.14586511254310608
      ],
      "translation": [
        0,
        0.4052802324295044,
        1.3278419971466064
      ]
    },
    {
      "mesh": 5,
      "name": "Texto.002",
      "rotation": [
        0.4999999701976776,
        0.5000000596046448,
        -0.4999999701976776,
        0.5
      ],
      "scale": [
        0.134585440158844,
        0.134585440158844,
        0.134585440158844
      ],
      "translation": [
        0,
        -0.14246413111686707,
        2.458254098892212
      ]
    },
    {
      "mesh": 6,
      "name": "Cilindro.001",
      "rotation": [
        -0.7071067094802856,
        0,
        0,
        0.7071068286895752
      ],
      "scale": [
        0.08296404778957367,
        0.24323590099811554,
        0.08296404778957367
      ],
      "translation": [
        -0.2610877454280853,
        0.3866516947746277,
        -1.1766395568847656
      ]
    },
    {
      "children": [
        6
      ],
      "name": "Vazio",
      "scale": [
        0.699999988079071,
        0.699999988079071,
        0.1731521189212799
      ],
      "translation": [
        0.1827613264322281,
        -0.6961784958839417,
        2.6406664848327637
      ]
    }
  ],
  "animations": [
    {
      "channels": [
        {
          "sampler": 0,
          "target": {
            "node": 7,
            "path": "translation"
          }
        },
        {
          "sampler": 1,
          "target": {
            "node": 7,
            "path": "rotation"
          }
        },
        {
          "sampler": 2,
          "target": {
            "node": 7,
            "path": "scale"
          }
        }
      ],
      "name": "VazioAction",
      "samplers": [
        {
          "input": 27,
          "interpolation": "LINEAR",
          "output": 28
        },
        {
          "input": 29,
          "interpolation": "LINEAR",
          "output": 30
        },
        {
          "input": 27,
          "interpolation": "LINEAR",
          "output": 31
        }
      ]
    }
  ],
  "materials": [
    {
      "alphaMode": "BLEND",
      "doubleSided": true,
      "name": "Mat_Fundo",
      "pbrMetallicRoughness": {
        "baseColorFactor": [
          1,
          1,
          1,
          0.8181817531585693
        ],
        "baseColorTexture": {
          "index": 0
        },
        "metallicFactor": 0,
        "roughnessFactor": 0.5
      }
    },
    {
      "doubleSided": true,
      "name": "Mat_Relicario",
      "pbrMetallicRoughness": {
        "baseColorTexture": {
          "index": 1
        },
        "metallicFactor": 0,
        "roughnessFactor": 0.4000000059604645
      }
    },
    {
      "doubleSided": true,
      "name": "Mat_letras",
      "pbrMetallicRoughness": {
        "baseColorTexture": {
          "index": 2
        },
        "metallicFactor": 0,
        "roughnessFactor": 0.5
      }
    },
    {
      "doubleSided": true,
      "emissiveFactor": [
        1,
        1,
        0
      ],
      "name": "MatRodas",
      "pbrMetallicRoughness": {
        "baseColorFactor": [
          0.793635368347168,
          0.7436726093292236,
          0,
          1
        ],
        "metallicFactor": 0,
        "roughnessFactor": 0.5
      }
    }
  ],
  "meshes": [
    {
      "name": "Fundo",
      "primitives": [
        {
          "attributes": {
            "POSITION": 0,
            "NORMAL": 1,
            "TEXCOORD_0": 2
          },
          "indices": 3,
          "material": 0
        }
      ]
    },
    {
      "name": "Cilindro",
      "primitives": [
        {
          "attributes": {
            "POSITION": 4,
            "NORMAL": 5,
            "TEXCOORD_0": 6
          },
          "indices": 7,
          "material": 0
        }
      ]
    },
    {
      "name": "Relicario",
      "primitives": [
        {
          "attributes": {
            "POSITION": 8,
            "NORMAL": 9,
            "TEXCOORD_0": 10
          },
          "indices": 11,
          "material": 1
        }
      ]
    },
    {
      "name": "Texto",
      "primitives": [
        {
          "attributes": {
            "POSITION": 12,
            "NORMAL": 13,
            "TEXCOORD_0": 14
          },
          "indices": 15,
          "material": 2
        }
      ]
    },
    {
      "name": "Texto.001",
      "primitives": [
        {
          "attributes": {
            "POSITION": 16,
            "NORMAL": 17,
            "TEXCOORD_0": 18
          },
          "indices": 19,
          "material": 2
        }
      ]
    },
    {
      "name": "Texto.002",
      "primitives": [
        {
          "attributes": {
            "POSITION": 20,
            "NORMAL": 21,
            "TEXCOORD_0": 22
          },
          "indices": 23,
          "material": 2
        }
      ]
    },
    {
      "name": "Cilindro.001",
      "primitives": [
        {
          "attributes": {
            "POSITION": 24,
            "NORMAL": 25,
            "TEXCOORD_0": 26
          },
          "indices": 7,
          "material": 3
        }
      ]
    }
  ],
  "textures": [
    {
      "sampler": 0,
      "source": 0
    },
    {
      "sampler": 0,
      "source": 1
    },
    {
      "sampler": 0,
      "source": 2
    }
  ],
  "images": [
    {
      "name": "FundoLetra2",
      "uri": "portifolio_img0.png"
    },
    {
      "name": "rosto",
      "uri": "portifolio_img1.jpg"
    },
    {
      "name": "FundoLetra",
      "uri": "portifolio_img2.png"
    }
  ],
  "accessors": [
    {
      "bufferView": 0,
      "componentType": 5126,
      "count": 24,
      "max": [
        1,
        1,
        1
      ],
      "min": [
        -1,
        -1,
        -1
      ],
      "type": "VEC3"
    },
    {
      "bufferView": 1,
      "componentType": 5126,
      "count": 24,
      "type": "VEC3"
    },
    {
      "bufferView": 2,
      "componentType": 5126,
      "count": 24,
      "type": "VEC2"
    },
    {
      "bufferView": 3,
      "componentType": 5123,
      "count": 36,
      "type": "SCALAR"
    },
    {
      "bufferView": 4,
      "componentType": 5126,
      "count": 192,
      "max": [
        1,
        1,
        1
      ],
      "min": [
        -1,
        -1,
        -1
      ],
      "type": "VEC3"
    },
    {
      "bufferView": 5,
      "componentType": 5126,
      "count": 192,
      "type": "VEC3"
    },
    {
      "bufferView": 6,
      "componentType": 5126,
      "count": 192,
      "type": "VEC2"
    },
    {
      "bufferView": 7,
      "componentType": 5123,
      "count": 372,
      "type": "SCALAR"
    },
    {
      "bufferView": 8,
      "componentType": 5126,
      "count": 576,
      "max": [
        1.3617749214172363,
        0.08694759756326675,
        1.0408118963241577
      ],
      "min": [
        -1.4382970333099365,
        -0.09986413270235062,
        -1.0408118963241577
      ],
      "type": "VEC3"
    },
    {
      "bufferView": 9,
      "componentType": 5126,
      "count": 576,
      "type": "VEC3"
    },
    {
      "bufferView": 10,
      "componentType": 5126,
      "count": 576,
      "type": "VEC2"
    },
    {
      "bufferView": 11,
      "componentType": 5123,
      "count": 1116,
      "type": "SCALAR"
    },
    {
      "bufferView": 12,
      "componentType": 5126,
      "count": 47560,
      "max": [
        7.841802597045898,
        0.04999999701976776,
        0.0747842788696289
      ],
      "min": [
        0.007670182269066572,
        -0.04999999701976776,
        -0.7785235047340393
      ],
      "type": "VEC3"
    },
    {
      "bufferView": 13,
      "componentType": 5126,
      "count": 47560,
      "type": "VEC3"
    },
    {
      "bufferView": 14,
      "componentType": 5126,
      "count": 47560,
      "type": "VEC2"
    },
    {
      "bufferView": 15,
      "componentType": 5123,
      "count": 82932,
      "type": "SCALAR"
    },
    {
      "bufferView": 16,
      "componentType": 5126,
      "count": 526818,
      "max": [
        26.103103637695312,
        0.04999999701976776,
        2.1448683738708496
      ],
      "min": [
        -0.006357856560498476,
        -0.04999999701976776,
        -0.7861035466194153
      ],
      "type": "VEC3"
    },
    {
      "bufferView": 17,
      "componentType": 5126,
      "count": 526818,
      "type": "VEC3"
    },
    {
      "bufferView": 18,
      "componentType": 5126,
      "count": 526818,
      "type": "VEC2"
    },
    {
      "bufferView": 19,
      "componentType": 5125,
      "count": 949176,
      "type": "SCALAR"
    },
    {
      "bufferView": 20,
      "componentType": 5126,
      "count": 287756,
      "max": [
        36.89558410644531,
        0.04999999701976776,
        0.169391468167305
      ],
      "min": [
        0.00862852018326521,
        -0.04999999701976776,
        -0.6457765698432922
      ],
      "type": "VEC3"
    },
    {
      "bufferView": 21,
      "componentType": 5126,
      "count": 287756,
      "type": "VEC3"
    },
    {
      "bufferView": 22,
      "componentType": 5126,
      "count": 287756,
      "type": "VEC2"
    },
    {
      "bufferView": 23,
      "componentType": 5125,
      "count": 513540,
      "type": "SCALAR"
    },
    {
      "bufferView": 24,
      "componentType": 5126,
      "count": 192,
      "max": [
        1,
        1,
        1
      ],
      "min": [
        -1,
        -1,
        -1
      ],
      "type": "VEC3"
    },
    {
      "bufferView": 25,
      "componentType": 5126,
      "count": 192,
      "type": "VEC3"
    },
    {
      "bufferView": 26,
      "componentType": 5126,
      "count": 192,
      "type": "VEC2"
    },
    {
      "bufferView": 27,
      "componentType": 5126,
      "count": 168,
      "max": [
        7
      ],
      "min": [
        0.041666666666666664
      ],
      "type": "SCALAR"
    },
    {
      "bufferView": 28,
      "componentType": 5126,
      "count": 168,
      "type": "VEC3"
    },
    {
      "bufferView": 29,
      "componentType": 5126,
      "count": 2,
      "max": [
        7
      ],
      "min": [
        0.041666666666666664
      ],
      "type": "SCALAR"
    },
    {
      "bufferView": 30,
      "componentType": 5126,
      "count": 2,
      "type": "VEC4"
    },
    {
      "bufferView": 31,
      "componentType": 5126,
      "count": 168,
      "type": "VEC3"
    }
  ],
  "bufferViews": [
    {
      "buffer": 0,
      "byteLength": 288,
      "byteOffset": 0
    },
    {
      "buffer": 0,
      "byteLength": 288,
      "byteOffset": 288
    },
    {
      "buffer": 0,
      "byteLength": 192,
      "byteOffset": 576
    },
    {
      "buffer": 0,
      "byteLength": 72,
      "byteOffset": 768
    },
    {
      "buffer": 0,
      "byteLength": 2304,
      "byteOffset": 840
    },
    {
      "buffer": 0,
      "byteLength": 2304,
      "byteOffset": 3144
    },
    {
      "buffer": 0,
      "byteLength": 1536,
      "byteOffset": 5448
    },
    {
      "buffer": 0,
      "byteLength": 744,
      "byteOffset": 6984
    },
    {
      "buffer": 0,
      "byteLength": 6912,
      "byteOffset": 7728
    },
    {
      "buffer": 0,
      "byteLength": 6912,
      "byteOffset": 14640
    },
    {
      "buffer": 0,
      "byteLength": 4608,
      "byteOffset": 21552
    },
    {
      "buffer": 0,
      "byteLength": 2232,
      "byteOffset": 26160
    },
    {
      "buffer": 0,
      "byteLength": 570720,
      "byteOffset": 28392
    },
    {
      "buffer": 0,
      "byteLength": 570720,
      "byteOffset": 599112
    },
    {
      "buffer": 0,
      "byteLength": 380480,
      "byteOffset": 1169832
    },
    {
      "buffer": 0,
      "byteLength": 165864,
      "byteOffset": 1550312
    },
    {
      "buffer": 0,
      "byteLength": 6321816,
      "byteOffset": 1716176
    },
    {
      "buffer": 0,
      "byteLength": 6321816,
      "byteOffset": 8037992
    },
    {
      "buffer": 0,
      "byteLength": 4214544,
      "byteOffset": 14359808
    },
    {
      "buffer": 0,
      "byteLength": 3796704,
      "byteOffset": 18574352
    },
    {
      "buffer": 0,
      "byteLength": 3453072,
      "byteOffset": 22371056
    },
    {
      "buffer": 0,
      "byteLength": 3453072,
      "byteOffset": 25824128
    },
    {
      "buffer": 0,
      "byteLength": 2302048,
      "byteOffset": 29277200
    },
    {
      "buffer": 0,
      "byteLength": 2054160,
      "byteOffset": 31579248
    },
    {
      "buffer": 0,
      "byteLength": 2304,
      "byteOffset": 33633408
    },
    {
      "buffer": 0,
      "byteLength": 2304,
      "byteOffset": 33635712
    },
    {
      "buffer": 0,
      "byteLength": 1536,
      "byteOffset": 33638016
    },
    {
      "buffer": 0,
      "byteLength": 672,
      "byteOffset": 33639552
    },
    {
      "buffer": 0,
      "byteLength": 2016,
      "byteOffset": 33640224
    },
    {
      "buffer": 0,
      "byteLength": 8,
      "byteOffset": 33642240
    },
    {
      "buffer": 0,
      "byteLength": 32,
      "byteOffset": 33642248
    },
    {
      "buffer": 0,
      "byteLength": 2016,
      "byteOffset": 33642280
    }
  ],
  "samplers": [
    {
      "magFilter": 9729,
      "minFilter": 9987
    }
  ],
  "buffers": [
    {
      "uri": "portifolio_data.bin",
      "byteLength": 33644296
    }
  ]
}